<mxfile host="drawio-plugin" modified="2021-03-13T08:29:46.592Z" agent="5.0 (X11; Linux x86_64) AppleWebKit/537.36 (KHTML, like Gecko) Chrome/84.0.4147.105 Safari/537.36" etag="zAn_vrIsW_NtyGsiUt_b" version="13.7.9" type="embed"><diagram id="5P3Gs7J7e-vPvxfR85US" name="Page-1"><mxGraphModel dx="1820" dy="872" grid="1" gridSize="10" guides="1" tooltips="1" connect="1" arrows="1" fold="1" page="1" pageScale="1" pageWidth="850" pageHeight="1100" math="0" shadow="0"><root><mxCell id="0"/><mxCell id="1" parent="0"/><mxCell id="65" style="edgeStyle=none;rounded=0;orthogonalLoop=1;jettySize=auto;html=1;exitX=0.5;exitY=1;exitDx=0;exitDy=0;entryX=0;entryY=0;entryDx=50;entryDy=0;entryPerimeter=0;" edge="1" parent="1" source="2" target="26"><mxGeometry relative="1" as="geometry"/></mxCell><mxCell id="2" value="&lt;span style=&quot;text-align: left&quot;&gt;EventBust&lt;/span&gt;" style="rounded=1;whiteSpace=wrap;html=1;align=center;verticalAlign=top;" parent="1" vertex="1"><mxGeometry x="975" y="325" width="490" height="140" as="geometry"/></mxCell><mxCell id="3" value="" style="shape=cylinder3;whiteSpace=wrap;html=1;boundedLbl=1;backgroundOutline=1;size=15;" vertex="1" parent="1"><mxGeometry x="890" y="685" width="60" height="80" as="geometry"/></mxCell><mxCell id="13" style="edgeStyle=orthogonalEdgeStyle;rounded=0;orthogonalLoop=1;jettySize=auto;html=1;entryX=0;entryY=0.5;entryDx=0;entryDy=0;" edge="1" parent="1" source="4" target="17"><mxGeometry relative="1" as="geometry"/></mxCell><mxCell id="4" value="InMemoryCommandHandler" style="shape=cube;whiteSpace=wrap;html=1;boundedLbl=1;backgroundOutline=1;darkOpacity=0.05;darkOpacity2=0.1;" vertex="1" parent="1"><mxGeometry x="680" y="225" width="190" height="80" as="geometry"/></mxCell><mxCell id="14" style="edgeStyle=orthogonalEdgeStyle;rounded=0;orthogonalLoop=1;jettySize=auto;html=1;exitX=0;exitY=0;exitDx=190;exitDy=50;exitPerimeter=0;entryX=0;entryY=0.25;entryDx=0;entryDy=0;" edge="1" parent="1" source="5" target="19"><mxGeometry relative="1" as="geometry"/></mxCell><mxCell id="5" value="InMemoryCommandHandler" style="shape=cube;whiteSpace=wrap;html=1;boundedLbl=1;backgroundOutline=1;darkOpacity=0.05;darkOpacity2=0.1;" vertex="1" parent="1"><mxGeometry x="685" y="335" width="190" height="80" as="geometry"/></mxCell><mxCell id="52" style="edgeStyle=orthogonalEdgeStyle;rounded=0;orthogonalLoop=1;jettySize=auto;html=1;exitX=0.5;exitY=0.5;exitDx=0;exitDy=0;exitPerimeter=0;entryX=0;entryY=0.5;entryDx=0;entryDy=0;" edge="1" parent="1" source="6" target="47"><mxGeometry relative="1" as="geometry"/></mxCell><mxCell id="6" value="Actor" style="shape=umlActor;verticalLabelPosition=bottom;verticalAlign=top;html=1;outlineConnect=0;" vertex="1" parent="1"><mxGeometry x="240" y="205" width="30" height="60" as="geometry"/></mxCell><mxCell id="15" style="edgeStyle=orthogonalEdgeStyle;rounded=0;orthogonalLoop=1;jettySize=auto;html=1;exitX=0;exitY=0;exitDx=190;exitDy=50;exitPerimeter=0;entryX=0;entryY=0.25;entryDx=0;entryDy=0;" edge="1" parent="1" source="7" target="20"><mxGeometry relative="1" as="geometry"/></mxCell><mxCell id="7" value="InMemoryCommandHandler" style="shape=cube;whiteSpace=wrap;html=1;boundedLbl=1;backgroundOutline=1;darkOpacity=0.05;darkOpacity2=0.1;" vertex="1" parent="1"><mxGeometry x="685" y="455" width="190" height="80" as="geometry"/></mxCell><mxCell id="53" style="edgeStyle=orthogonalEdgeStyle;rounded=0;orthogonalLoop=1;jettySize=auto;html=1;exitX=0.5;exitY=0.5;exitDx=0;exitDy=0;exitPerimeter=0;" edge="1" parent="1" source="9"><mxGeometry relative="1" as="geometry"><mxPoint x="360" y="375" as="targetPoint"/></mxGeometry></mxCell><mxCell id="9" value="Actor" style="shape=umlActor;verticalLabelPosition=bottom;verticalAlign=top;html=1;outlineConnect=0;" vertex="1" parent="1"><mxGeometry x="240" y="325" width="30" height="60" as="geometry"/></mxCell><mxCell id="51" style="edgeStyle=orthogonalEdgeStyle;rounded=0;orthogonalLoop=1;jettySize=auto;html=1;exitX=0.5;exitY=0.5;exitDx=0;exitDy=0;exitPerimeter=0;entryX=0;entryY=0.5;entryDx=0;entryDy=0;" edge="1" parent="1" source="10" target="47"><mxGeometry relative="1" as="geometry"/></mxCell><mxCell id="10" value="Actor" style="shape=umlActor;verticalLabelPosition=bottom;verticalAlign=top;html=1;outlineConnect=0;" vertex="1" parent="1"><mxGeometry x="240" y="455" width="30" height="60" as="geometry"/></mxCell><mxCell id="55" style="edgeStyle=orthogonalEdgeStyle;rounded=0;orthogonalLoop=1;jettySize=auto;html=1;exitX=1;exitY=0.5;exitDx=0;exitDy=0;entryX=0;entryY=0;entryDx=0;entryDy=30;entryPerimeter=0;" edge="1" parent="1" source="12" target="4"><mxGeometry relative="1" as="geometry"/></mxCell><mxCell id="56" style="edgeStyle=orthogonalEdgeStyle;rounded=0;orthogonalLoop=1;jettySize=auto;html=1;exitX=1;exitY=0.5;exitDx=0;exitDy=0;entryX=0;entryY=0;entryDx=0;entryDy=30;entryPerimeter=0;" edge="1" parent="1" source="12" target="5"><mxGeometry relative="1" as="geometry"/></mxCell><mxCell id="57" style="edgeStyle=orthogonalEdgeStyle;rounded=0;orthogonalLoop=1;jettySize=auto;html=1;exitX=1;exitY=0.5;exitDx=0;exitDy=0;entryX=0;entryY=0;entryDx=0;entryDy=30;entryPerimeter=0;" edge="1" parent="1" source="12" target="7"><mxGeometry relative="1" as="geometry"/></mxCell><mxCell id="12" value="Sharding on Aggregate" style="rounded=0;whiteSpace=wrap;html=1;" vertex="1" parent="1"><mxGeometry x="420" y="305" width="80" height="90" as="geometry"/></mxCell><mxCell id="17" value="Partition 0" style="rounded=1;whiteSpace=wrap;html=1;" vertex="1" parent="1"><mxGeometry x="1040" y="365" width="360" height="20" as="geometry"/></mxCell><mxCell id="19" value="Partition 2" style="rounded=1;whiteSpace=wrap;html=1;" vertex="1" parent="1"><mxGeometry x="1040" y="395" width="360" height="20" as="geometry"/></mxCell><mxCell id="20" value="Partition 3" style="rounded=1;whiteSpace=wrap;html=1;" vertex="1" parent="1"><mxGeometry x="1040" y="425" width="360" height="20" as="geometry"/></mxCell><mxCell id="33" value="Write&amp;nbsp;" style="edgeStyle=orthogonalEdgeStyle;rounded=0;orthogonalLoop=1;jettySize=auto;html=1;exitX=0;exitY=0;exitDx=70;exitDy=80;exitPerimeter=0;entryX=1;entryY=0.5;entryDx=0;entryDy=0;entryPerimeter=0;" edge="1" parent="1" source="26" target="3"><mxGeometry relative="1" as="geometry"/></mxCell><mxCell id="58" style="edgeStyle=orthogonalEdgeStyle;rounded=0;orthogonalLoop=1;jettySize=auto;html=1;exitX=0;exitY=0;exitDx=70;exitDy=80;exitPerimeter=0;entryX=1;entryY=0.5;entryDx=0;entryDy=0;entryPerimeter=0;" edge="1" parent="1" source="26" target="38"><mxGeometry relative="1" as="geometry"/></mxCell><mxCell id="59" value="Write" style="edgeLabel;html=1;align=center;verticalAlign=middle;resizable=0;points=[];" vertex="1" connectable="0" parent="58"><mxGeometry x="-0.087" y="-83" relative="1" as="geometry"><mxPoint x="-83" y="86" as="offset"/></mxGeometry></mxCell><mxCell id="26" value="Projectors" style="shape=cube;whiteSpace=wrap;html=1;boundedLbl=1;backgroundOutline=1;darkOpacity=0.05;darkOpacity2=0.1;" vertex="1" parent="1"><mxGeometry x="1170" y="610" width="120" height="80" as="geometry"/></mxCell><mxCell id="46" style="edgeStyle=orthogonalEdgeStyle;rounded=0;orthogonalLoop=1;jettySize=auto;html=1;exitX=1;exitY=0.3333333333333333;exitDx=0;exitDy=0;exitPerimeter=0;entryX=0;entryY=0.5;entryDx=0;entryDy=0;" edge="1" parent="1" source="27" target="29"><mxGeometry relative="1" as="geometry"/></mxCell><mxCell id="27" value="Actor" style="shape=umlActor;verticalLabelPosition=bottom;verticalAlign=top;html=1;outlineConnect=0;" vertex="1" parent="1"><mxGeometry x="240" y="755" width="30" height="60" as="geometry"/></mxCell><mxCell id="29" value="Query&lt;br&gt;API" style="shape=document;whiteSpace=wrap;html=1;boundedLbl=1;" vertex="1" parent="1"><mxGeometry x="350" y="675" width="70" height="220" as="geometry"/></mxCell><mxCell id="38" value="" style="shape=cylinder3;whiteSpace=wrap;html=1;boundedLbl=1;backgroundOutline=1;size=15;" vertex="1" parent="1"><mxGeometry x="890" y="785" width="60" height="80" as="geometry"/></mxCell><mxCell id="47" value="Command&lt;br&gt;API" style="shape=document;whiteSpace=wrap;html=1;boundedLbl=1;" vertex="1" parent="1"><mxGeometry x="350" y="265" width="70" height="220" as="geometry"/></mxCell><mxCell id="61" value="" style="shape=flexArrow;endArrow=classic;startArrow=classic;html=1;exitX=1;exitY=0.25;exitDx=0;exitDy=0;entryX=0;entryY=0.5;entryDx=0;entryDy=0;entryPerimeter=0;" edge="1" parent="1" source="29" target="3"><mxGeometry width="50" height="50" relative="1" as="geometry"><mxPoint x="640" y="835" as="sourcePoint"/><mxPoint x="690" y="785" as="targetPoint"/></mxGeometry></mxCell><mxCell id="62" value="Query &amp;amp; Response" style="edgeLabel;html=1;align=center;verticalAlign=middle;resizable=0;points=[];" vertex="1" connectable="0" parent="61"><mxGeometry x="-0.3972" y="-1" relative="1" as="geometry"><mxPoint as="offset"/></mxGeometry></mxCell><mxCell id="63" value="" style="shape=flexArrow;endArrow=classic;startArrow=classic;html=1;entryX=0;entryY=0.5;entryDx=0;entryDy=0;entryPerimeter=0;" edge="1" parent="1" target="38"><mxGeometry width="50" height="50" relative="1" as="geometry"><mxPoint x="420" y="825" as="sourcePoint"/><mxPoint x="890" y="822.5" as="targetPoint"/></mxGeometry></mxCell><mxCell id="64" value="Query &amp;amp; Response" style="edgeLabel;html=1;align=center;verticalAlign=middle;resizable=0;points=[];" vertex="1" connectable="0" parent="63"><mxGeometry x="-0.3972" y="-1" relative="1" as="geometry"><mxPoint as="offset"/></mxGeometry></mxCell></root></mxGraphModel></diagram></mxfile>